<svg xmlns="http://www.w3.org/2000/svg" viewBox="0 0 400 500" fill="none" stroke="#2a2a2a" stroke-width="3" stroke-linecap="round" stroke-linejoin="round">
  <!-- A hand, gesture study -->
  <path d="M150 470 C140 400 138 350 144 320 C120 312 108 300 110 282 C112 268 130 266 150 280
           C150 240 152 200 156 176 C160 158 184 160 184 182 C186 210 186 250 188 286
           C190 244 194 200 198 178 C202 158 226 160 224 184 C224 216 222 256 222 290
           C226 252 230 214 234 196 C238 178 260 180 258 202 C256 234 252 270 250 300
           C254 276 260 250 266 238 C272 224 292 230 288 250 C282 286 270 330 256 360
           C246 384 240 430 244 470"/>
</svg>
